<svg width="140" height="140" viewBox="0 0 140 140" fill="none" xmlns="http://www.w3.org/2000/svg">
<path d="M107.784 37.1431C107.784 35.3284 109.255 33.8574 111.07 33.8574H135.712C137.527 33.8574 138.998 35.3284 138.998 37.1431V61.7856C138.998 63.6002 137.527 65.0712 135.712 65.0712H111.07C109.255 65.0712 107.784 63.6002 107.784 61.7856V37.1431Z" fill="white"/>
<path d="M74.9288 4.28566C74.9288 2.47104 76.3999 1 78.2145 1H102.857C104.672 1 106.143 2.47104 106.143 4.28567V28.9282C106.143 30.7428 104.672 32.2139 102.857 32.2139H78.2145C76.3999 32.2139 74.9288 30.7428 74.9288 28.9282V4.28566Z" fill="white"/>
<path d="M112.715 33.8586C110.25 33.8586 106.143 32.2139 106.143 28.9282L102.857 32.2139C106.143 32.2139 107.786 36.3228 107.786 38.7871L112.715 33.8586Z" fill="white"/>
<path d="M32.2139 37.1431C32.2139 35.3284 30.7428 33.8574 28.9282 33.8574H4.28566C2.47104 33.8574 1 35.3284 1 37.1431V61.7856C1 63.6002 2.47104 65.0712 4.28567 65.0712H28.9282C30.7428 65.0712 32.2139 63.6002 32.2139 61.7856V37.1431Z" fill="white"/>
<path d="M65.0739 4.28566C65.0739 2.47104 63.6028 1 61.7882 1H37.1457C35.3311 1 33.86 2.47104 33.86 4.28567V28.9282C33.86 30.7428 35.3311 32.2139 37.1457 32.2139H61.7882C63.6028 32.2139 65.0739 30.7428 65.0739 28.9282V4.28566Z" fill="white"/>
<path d="M27.2853 33.8586C29.7495 33.8586 33.86 32.2139 33.86 28.9282L37.1457 32.2139C33.86 32.2139 32.2138 36.3228 32.2138 38.7871L27.2853 33.8586Z" fill="white"/>
<path d="M32.2139 102.856C32.2139 104.67 30.7428 106.141 28.9282 106.141H4.28566C2.47104 106.141 1 104.67 1 102.856V78.2132C1 76.3985 2.47104 74.9275 4.28567 74.9275H28.9282C30.7428 74.9275 32.2139 76.3985 32.2139 78.2132V102.856Z" fill="white"/>
<path d="M65.0739 135.712C65.0739 137.527 63.6028 138.998 61.7882 138.998H37.1457C35.3311 138.998 33.86 137.527 33.86 135.712V111.07C33.86 109.255 35.3311 107.784 37.1457 107.784H61.7882C63.6028 107.784 65.0739 109.255 65.0739 111.07V135.712Z" fill="white"/>
<path d="M27.2853 106.141C29.7495 106.141 33.86 107.784 33.86 111.07L37.1457 107.784C33.86 107.784 32.2138 103.677 32.2138 101.213L27.2853 106.141Z" fill="white"/>
<path d="M106.142 111.072C106.142 109.257 104.671 107.786 102.856 107.786H78.2138C76.3992 107.786 74.9281 109.257 74.9281 111.072V135.714C74.9281 137.529 76.3992 139 78.2138 139H102.856C104.671 139 106.142 137.529 106.142 135.714V111.072Z" fill="white"/>
<path d="M139 78.213C139 76.3984 137.529 74.9274 135.714 74.9274H111.072C109.257 74.9274 107.786 76.3984 107.786 78.2131V102.856C107.786 104.67 109.257 106.141 111.072 106.141H135.714C137.529 106.141 139 104.67 139 102.856V78.213Z" fill="white"/>
<path d="M101.213 107.785C103.678 107.785 107.786 106.141 107.786 102.856L111.072 106.141C107.786 106.141 106.142 110.249 106.142 112.714L101.213 107.785Z" fill="white"/>
<path d="M106.143 28.9282V4.28567C106.143 2.47104 104.672 1 102.857 1H78.2145C76.3999 1 74.9288 2.47104 74.9288 4.28566V28.9282C74.9288 30.7428 76.3999 32.2139 78.2145 32.2139H102.857M106.143 28.9282C106.143 30.7428 104.672 32.2139 102.857 32.2139M106.143 28.9282C106.143 32.2139 110.25 33.8586 112.715 33.8586L107.786 38.7871C107.786 36.3228 106.143 32.2139 102.857 32.2139M106.143 28.9282L102.857 32.2139M33.86 28.9282V4.28567C33.86 2.47104 35.3311 1 37.1457 1H61.7882C63.6028 1 65.0739 2.47104 65.0739 4.28566V28.9282C65.0739 30.7428 63.6028 32.2139 61.7882 32.2139H37.1457M33.86 28.9282C33.86 30.7428 35.3311 32.2139 37.1457 32.2139M33.86 28.9282C33.86 32.2139 29.7495 33.8586 27.2853 33.8586L32.2138 38.7871C32.2138 36.3228 33.86 32.2139 37.1457 32.2139M33.86 28.9282L37.1457 32.2139M33.86 111.07V135.712C33.86 137.527 35.3311 138.998 37.1457 138.998H61.7882C63.6028 138.998 65.0739 137.527 65.0739 135.712V111.07C65.0739 109.255 63.6028 107.784 61.7882 107.784H37.1457M33.86 111.07C33.86 109.255 35.3311 107.784 37.1457 107.784M33.86 111.07C33.86 107.784 29.7495 106.141 27.2853 106.141L32.2138 101.213C32.2138 103.677 33.86 107.784 37.1457 107.784M33.86 111.07L37.1457 107.784M107.786 102.856V78.2131C107.786 76.3984 109.257 74.9274 111.072 74.9274H135.714C137.529 74.9274 139 76.3984 139 78.213V102.856C139 104.67 137.529 106.141 135.714 106.141H111.072M107.786 102.856C107.786 104.67 109.257 106.141 111.072 106.141M107.786 102.856C107.786 106.141 103.678 107.785 101.213 107.785L106.142 112.714C106.142 110.249 107.786 106.141 111.072 106.141M107.786 102.856L111.072 106.141M111.07 65.0712H135.712C137.527 65.0712 138.998 63.6002 138.998 61.7856V37.1431C138.998 35.3284 137.527 33.8574 135.712 33.8574H111.07C109.255 33.8574 107.784 35.3284 107.784 37.1431V61.7856C107.784 63.6002 109.255 65.0712 111.07 65.0712ZM28.9282 65.0712H4.28567C2.47104 65.0712 1 63.6002 1 61.7856V37.1431C1 35.3284 2.47104 33.8574 4.28566 33.8574H28.9282C30.7428 33.8574 32.2139 35.3284 32.2139 37.1431V61.7856C32.2139 63.6002 30.7428 65.0712 28.9282 65.0712ZM28.9282 74.9275H4.28567C2.47104 74.9275 1 76.3985 1 78.2132V102.856C1 104.67 2.47104 106.141 4.28566 106.141H28.9282C30.7428 106.141 32.2139 104.67 32.2139 102.856V78.2132C32.2139 76.3985 30.7428 74.9275 28.9282 74.9275ZM102.856 139H78.2138C76.3992 139 74.9281 137.529 74.9281 135.714V111.072C74.9281 109.257 76.3992 107.786 78.2138 107.786H102.856C104.671 107.786 106.142 109.257 106.142 111.072V135.714C106.142 137.529 104.671 139 102.856 139Z" stroke="white" stroke-width="2"/>
</svg>
