<svg width="200" height="200" viewBox="0 0 200 200" fill="none" xmlns="http://www.w3.org/2000/svg">
<rect width="200" height="200" fill="black"/>
<rect x="129.023" y="72.2383" width="23.9762" height="23.9762" rx="2.52381" fill="white"/>
<rect x="103.785" y="47" width="23.9762" height="23.9762" rx="2.52381" fill="white"/>
<path d="M132.81 72.2388C130.917 72.2388 127.762 70.9769 127.762 68.4531L125.238 70.9769C127.762 70.9769 129.024 74.1317 129.024 76.0246L132.81 72.2388Z" fill="white"/>
<rect width="23.9762" height="23.9762" rx="2.52381" transform="matrix(-1 0 0 1 70.9766 72.2383)" fill="white"/>
<rect width="23.9762" height="23.9762" rx="2.52381" transform="matrix(-1 0 0 1 96.2148 47)" fill="white"/>
<path d="M67.1903 72.2388C69.0831 72.2388 72.2379 70.9769 72.2379 68.4531L74.7617 70.9769C72.2379 70.9769 70.976 74.1317 70.976 76.0246L67.1903 72.2388Z" fill="white"/>
<rect x="70.9766" y="127.762" width="23.9762" height="23.9762" rx="2.52381" transform="rotate(180 70.9766 127.762)" fill="white"/>
<rect x="96.2148" y="153" width="23.9762" height="23.9762" rx="2.52381" transform="rotate(180 96.2148 153)" fill="white"/>
<path d="M67.1903 127.761C69.0831 127.761 72.2379 129.023 72.2379 131.547L74.7617 129.023C72.2379 129.023 70.976 125.868 70.976 123.975L67.1903 127.761Z" fill="white"/>
<rect width="23.9762" height="23.9762" rx="2.52381" transform="matrix(-1 0 0 1 127.762 129.023)" fill="white"/>
<rect width="23.9762" height="23.9762" rx="2.52381" transform="matrix(-1 0 0 1 153 103.785)" fill="white"/>
<path d="M123.975 129.024C125.868 129.024 129.023 127.762 129.023 125.238L131.547 127.762C129.023 127.762 127.761 130.917 127.761 132.81L123.975 129.024Z" fill="white"/>
</svg>
