<svg width="126" height="24" viewBox="0 0 126 24" fill="none" xmlns="http://www.w3.org/2000/svg">
<path d="M18.5923 6.95625C18.5923 6.2704 19.1483 5.7144 19.8342 5.7144H22.7852C23.4711 5.7144 24.0271 6.2704 24.0271 6.95625V9.90111C24.0271 10.587 23.4711 11.1429 22.7852 11.1429H19.8342C19.1483 11.1429 18.5923 10.587 18.5923 9.90111V6.95625Z" fill="white"/>
<path d="M12.8717 1.24184C12.8717 0.555992 13.4277 0 14.1135 0H17.0646C17.7504 0 18.3064 0.555992 18.3064 1.24184V4.1867C18.3064 4.87255 17.7504 5.42854 17.0646 5.42854H14.1135C13.4277 5.42854 12.8717 4.87255 12.8717 4.1867V1.24184Z" fill="white"/>
<path d="M19.4521 5.7146C19.023 5.7146 18.308 5.42889 18.308 4.85746L17.7359 5.42889C18.308 5.42889 18.594 6.14317 18.594 6.57174L19.4521 5.7146Z" fill="white"/>
<path d="M5.43474 6.95625C5.43474 6.2704 4.87875 5.7144 4.1929 5.7144H1.24184C0.555992 5.7144 0 6.2704 0 6.95625V9.90111C0 10.587 0.555992 11.1429 1.24184 11.1429H4.1929C4.87875 11.1429 5.43474 10.587 5.43474 9.90111V6.95625Z" fill="white"/>
<path d="M11.1554 1.24184C11.1554 0.555992 10.5994 0 9.91353 0H6.96247C6.27662 0 5.72063 0.555992 5.72063 1.24184V4.1867C5.72063 4.87255 6.27662 5.42854 6.96247 5.42854H9.91353C10.5994 5.42854 11.1554 4.87255 11.1554 4.1867V1.24184Z" fill="white"/>
<path d="M4.57496 5.7146C5.00402 5.7146 5.71911 5.42889 5.71911 4.85746L6.29119 5.42889C5.71911 5.42889 5.43307 6.14317 5.43307 6.57174L4.57496 5.7146Z" fill="white"/>
<path d="M5.43474 17.0438C5.43474 17.7296 4.87875 18.2856 4.1929 18.2856H1.24184C0.555992 18.2856 0 17.7296 0 17.0438V14.0989C0 13.413 0.555992 12.8571 1.24184 12.8571H4.1929C4.87875 12.8571 5.43474 13.413 5.43474 14.0989V17.0438Z" fill="white"/>
<path d="M11.1554 22.7582C11.1554 23.444 10.5994 24 9.91353 24H6.96247C6.27662 24 5.72063 23.444 5.72063 22.7582V19.8133C5.72063 19.1274 6.27662 18.5715 6.96247 18.5715H9.91353C10.5994 18.5715 11.1554 19.1274 11.1554 19.8133V22.7582Z" fill="white"/>
<path d="M4.57496 18.2857C5.00402 18.2857 5.71911 18.5714 5.71911 19.1428L6.29119 18.5714C5.71911 18.5714 5.43307 17.8571 5.43307 17.4286L4.57496 18.2857Z" fill="white"/>
<path d="M18.3039 19.8132C18.3039 19.1274 17.7479 18.5714 17.0621 18.5714H14.111C13.4252 18.5714 12.8692 19.1274 12.8692 19.8132V22.7581C12.8692 23.4439 13.4252 23.9999 14.111 23.9999H17.0621C17.7479 23.9999 18.3039 23.4439 18.3039 22.7581V19.8132Z" fill="white"/>
<path d="M24.0246 14.0988C24.0246 13.413 23.4686 12.857 22.7827 12.857H19.8317C19.1458 12.857 18.5898 13.413 18.5898 14.0988V17.0437C18.5898 17.7295 19.1458 18.2855 19.8317 18.2855H22.7827C23.4686 18.2855 24.0246 17.7295 24.0246 17.0437V14.0988Z" fill="white"/>
<path d="M17.4441 18.5713C17.8732 18.5713 18.5883 18.2856 18.5883 17.7142L19.1604 18.2856C18.5883 18.2856 18.3023 18.9999 18.3023 19.4284L17.4441 18.5713Z" fill="white"/>
<path d="M36.6369 20.1108C40.0623 20.1108 41.8281 18.5582 41.8281 15.5804V15.534C41.8281 13.3094 40.698 11.9654 38.5203 11.6062V11.3744C40.3449 11.0153 41.2866 9.81025 41.2866 7.88686V7.84052C41.2866 5.24511 39.6503 3.88947 36.4838 3.88947H28.9501V5.72016C30.2215 5.72016 30.2921 5.7781 30.2921 6.78613V17.2141C30.2921 18.2221 30.2215 18.2801 28.9501 18.2801V20.1108H36.6369ZM33.2114 6.14887H35.9424C37.5904 6.14887 38.379 6.83248 38.379 8.30398V8.36192C38.379 9.87977 37.5904 10.5981 35.9424 10.5981H33.2114V6.14887ZM33.2114 12.5331H36.0601C37.8729 12.5331 38.744 13.3905 38.744 15.1517V15.2096C38.744 16.994 37.8729 17.8398 36.0601 17.8398H33.2114V12.5331Z" fill="white"/>
<path d="M48.4789 20.1108V18.2801C47.2194 18.2801 47.137 18.2221 47.137 17.2141V3.88947H44.5708C44.4531 4.89751 44.2647 5.04814 42.9346 5.04814V6.87883C44.1941 6.87883 44.2765 6.93676 44.2765 7.9448V17.2141C44.2765 18.2221 44.1941 18.2801 42.9346 18.2801V20.1108H48.4789Z" fill="white"/>
<path d="M55.012 20.4004C58.414 20.4004 60.3209 18.0368 60.3209 14.1552V13.9003C60.3209 9.99563 58.4257 7.65513 55.012 7.65513C51.5983 7.65513 49.7031 9.99563 49.7031 13.9003V14.1552C49.7031 18.0368 51.5983 20.4004 55.012 20.4004ZM55.012 18.4539C53.5995 18.4539 52.6577 17.2257 52.6577 14.5724V13.4832C52.6577 10.8646 53.4229 9.5901 55.012 9.5901C56.5894 9.5901 57.3663 10.8646 57.3663 13.4832V14.5724C57.3663 17.1909 56.5894 18.4539 55.012 18.4539Z" fill="white"/>
<path d="M67.3249 20.4004C70.3502 20.4004 72.1159 18.8131 72.4572 15.8237L69.6557 15.5225C69.4555 17.4922 68.6786 18.4423 67.3367 18.4423C65.7358 18.4423 64.9706 17.1562 64.9706 14.4449V13.4716C64.9706 10.8415 65.8182 9.5901 67.525 9.5901C68.6786 9.5901 69.3967 10.1694 69.3967 10.9226C69.3967 11.6525 68.7022 11.7916 68.7022 12.5795C68.7022 13.3558 69.3143 13.7265 70.2324 13.7265C71.5508 13.7265 72.2336 12.9502 72.2336 11.5251C72.2336 9.16139 70.3855 7.65513 67.4426 7.65513C63.9583 7.65513 62.016 9.81025 62.016 13.9351V13.9814C62.016 18.199 63.817 20.4004 67.3249 20.4004Z" fill="white"/>
<path d="M79.0021 20.1108V18.2801C77.8956 18.2801 77.8368 18.2221 77.8368 17.2489V15.6963L79.4259 14.2827L81.3682 17.4111C81.792 18.1874 81.6743 18.2801 80.45 18.2801V20.1108H85.2763V18.2801C84.417 18.2801 84.3581 18.2569 83.7813 17.2257L81.3211 12.5795L83.2752 10.714C84.1816 9.89135 84.4288 9.77549 85.2057 9.77549V7.9448H79.7555V9.71755C81.5212 9.77549 81.5448 10.0652 80.2028 11.3513L77.6602 13.7845L77.4601 13.6802C77.7308 12.5447 77.8368 11.6989 77.8368 10.2621V3.88947H75.2706C75.1529 4.89751 74.9646 5.04814 73.6344 5.04814V6.87883C74.8939 6.87883 74.9763 6.93676 74.9763 7.9448V17.2141C74.9763 18.2221 74.8939 18.2801 73.6344 18.2801V20.1108H79.0021Z" fill="white"/>
<path d="M92.4569 20.1224V18.2917C90.2321 18.2917 90.079 18.2337 90.079 17.2257V13.6802C90.079 11.8031 90.9383 10.4591 91.7741 10.4591C92.5628 10.4591 92.2685 11.9885 93.3986 11.9885C94.2226 11.9885 94.6817 11.1891 94.6817 9.9377C94.6817 8.60523 94.1402 7.8521 93.0807 7.8521C91.727 7.8521 90.5381 8.96442 89.5611 11.3049L89.3139 11.2122C89.7377 9.82183 89.9378 8.79062 89.9731 7.9448H87.5129C87.3952 8.95283 87.2068 9.10346 85.8766 9.10346V10.9341C87.1362 10.9341 87.2186 10.9921 87.2186 12.0001V17.2257C87.2186 18.2337 87.1362 18.2917 85.8766 18.2917V20.1224H92.4569Z" fill="white"/>
<path d="M98.1778 6.49647C99.3902 6.49647 100.085 5.96348 100.085 5.04814C100.085 4.14438 99.3902 3.59981 98.1778 3.59981C96.9653 3.59981 96.2708 4.14438 96.2708 5.04814C96.2708 5.96348 96.9653 6.49647 98.1778 6.49647ZM100.956 20.1108V18.2801C99.6963 18.2801 99.6139 18.2221 99.6139 17.2141V7.9448H97.0477C96.93 8.95283 96.7416 9.10346 95.4115 9.10346V10.9341C96.671 10.9341 96.7534 10.9921 96.7534 12.0001V17.2141C96.7534 18.2221 96.671 18.2801 95.4115 18.2801V20.1108H100.956Z" fill="white"/>
<path d="M106.382 20.3193C108.289 20.3193 109.514 19.1607 110.185 17.1098L110.432 17.2025C110.043 18.535 109.843 19.5083 109.831 20.1108H114.022V18.2801C112.763 18.2801 112.68 18.2221 112.68 17.2141V3.88947H110.114C110.008 4.89751 109.82 5.04814 108.478 5.04814V6.61233C109.761 6.61233 109.831 6.65868 109.855 7.16849L109.89 7.89845C109.926 8.74427 110.067 9.67121 110.432 10.853L110.185 10.9457C109.525 8.97601 108.301 7.73624 106.335 7.73624C103.722 7.73624 102.18 9.98405 102.18 13.7729V14.2827C102.18 18.0715 103.734 20.3193 106.382 20.3193ZM107.348 18.4191C105.817 18.4191 105.076 17.1446 105.076 14.4797V13.5875C105.076 10.911 105.817 9.62486 107.336 9.62486C108.949 9.62486 109.82 11.05 109.82 13.7034V14.3638C109.82 17.0055 108.949 18.4191 107.348 18.4191Z" fill="white"/>
<path d="M120.614 18.4539C118.943 18.4539 118.083 17.2141 118.083 14.6303V14.4797H125.57C125.64 14.0973 125.664 13.7149 125.664 13.2746C125.664 9.68279 123.887 7.66672 120.614 7.66672C117.13 7.66672 115.246 9.91452 115.246 14.0162V14.0625C115.246 18.141 117.106 20.3888 120.543 20.3888C123.392 20.3888 125.205 18.9058 125.617 16.3103L122.992 15.9975C122.756 17.6892 121.956 18.4539 120.614 18.4539ZM120.673 9.5901C122.085 9.5901 122.815 10.4707 122.815 12.1507V12.1623C122.815 12.6026 122.603 12.8112 122.097 12.8112H118.107C118.248 10.6677 119.096 9.5901 120.673 9.5901Z" fill="white"/>
</svg>
